<?xml version="1.0" encoding="UTF-8" standalone="no"?>
<svg
   xmlns:dc="http://purl.org/dc/elements/1.1/"
   xmlns:cc="http://creativecommons.org/ns#"
   xmlns:rdf="http://www.w3.org/1999/02/22-rdf-syntax-ns#"
   xmlns:svg="http://www.w3.org/2000/svg"
   xmlns="http://www.w3.org/2000/svg"
   xmlns:sodipodi="http://sodipodi.sourceforge.net/DTD/sodipodi-0.dtd"
   xmlns:inkscape="http://www.inkscape.org/namespaces/inkscape"
   width="210mm"
   height="297mm"
   viewBox="0 0 210 297"
   version="1.1"
   id="svg8"
   inkscape:version="1.0.1 (3bc2e813f5, 2020-09-07)"
   sodipodi:docname="icon-python.svg">
  <defs
     id="defs2" />
  <sodipodi:namedview
     id="base"
     pagecolor="#ffffff"
     bordercolor="#666666"
     borderopacity="1.0"
     inkscape:pageopacity="0.0"
     inkscape:pageshadow="2"
     inkscape:zoom="3.959798"
     inkscape:cx="22.559712"
     inkscape:cy="563.61805"
     inkscape:document-units="mm"
     inkscape:current-layer="g298"
     inkscape:document-rotation="0"
     showgrid="false"
     inkscape:snap-global="true"
     inkscape:window-width="958"
     inkscape:window-height="1008"
     inkscape:window-x="946"
     inkscape:window-y="0"
     inkscape:window-maximized="0" />
  <metadata
     id="metadata5">
    <rdf:RDF>
      <cc:Work
         rdf:about="">
        <dc:format>image/svg+xml</dc:format>
        <dc:type
           rdf:resource="http://purl.org/dc/dcmitype/StillImage" />
        <dc:title />
      </cc:Work>
    </rdf:RDF>
  </metadata>
  <g
     inkscape:label="Слой 1"
     inkscape:groupmode="layer"
     id="layer1">
    <g
       id="g298"
       transform="matrix(0.06495301,0,0,0.06517111,-2.612081,135.16515)">
      <path
         id="rect12"
         style="fill:#4169e1;stroke-width:0.155058"
         d="m 108.188,133.38479 c -15.216963,0 -27.4674,5.92744 -27.4674,13.29048 v 17.4392 h 29.08007 v 5.87464 l -52.707054,0.56996 c -7.362614,0.0796 -13.157363,12.39366 -12.992781,27.60973 0.164582,15.21608 6.224356,27.40168 13.586969,27.32204 l 15.58183,-0.16869 v -7.26471 -13.186 -3.1e-4 c 0,-5.74243 4.622839,-10.36527 10.365271,-10.36527 h 20.842905 20.09426 c 6.13588,0 11.07546,-4.64328 11.07546,-10.411 v 10.411 3.78167 h 0.008 v -51.61226 c 0,-7.36304 -12.25044,-13.29048 -27.4674,-13.29048 z m -15.112415,7.75291 a 5.5377907,5.5377907 0 0 1 3.02e-4,0 5.5377907,5.5377907 0 0 1 0.04936,0 5.5377907,5.5377907 0 0 1 5.537878,5.53757 5.5377907,5.5377907 0 0 1 -5.537878,5.53788 5.5377907,5.5377907 0 0 1 -5.537877,-5.53788 5.5377907,5.5377907 0 0 1 5.48821,-5.53757 z" />
      <path
         id="rect12-8"
         style="fill:#ffd700;stroke-width:0.155058"
         d="m 106.49722,260.74154 c 15.21696,0 27.46739,-5.92744 27.46739,-13.29049 v -17.43919 h -29.08006 v -5.87465 l 52.70705,-0.56996 c 7.36261,-0.0796 13.15736,-12.39366 12.99278,-27.60973 -0.16458,-15.21608 -6.22436,-27.40167 -13.58697,-27.32203 l -15.58183,0.16869 v 7.26471 13.186 3e-4 c 0,5.74244 -4.62284,10.36528 -10.36527,10.36528 h -20.8429 -20.094269 c -6.135872,0 -11.075453,4.64328 -11.075453,10.411 v -10.411 -3.78166 h -0.0079 v 51.61224 c -2.3e-5,7.36305 12.250418,13.29049 27.467372,13.29049 z m 15.11241,-7.75291 a 5.5377907,5.5377907 0 0 1 -3.1e-4,0 5.5377907,5.5377907 0 0 1 -0.0493,0 5.5377907,5.5377907 0 0 1 -5.53788,-5.53758 5.5377907,5.5377907 0 0 1 5.53789,-5.53788 5.5377907,5.5377907 0 0 1 5.53787,5.53788 5.5377907,5.5377907 0 0 1 -5.48821,5.53758 z" />
    </g>
  </g>
</svg>
