<?xml version="1.0" encoding="UTF-8" standalone="no"?>
<svg
   xmlns:dc="http://purl.org/dc/elements/1.1/"
   xmlns:cc="http://creativecommons.org/ns#"
   xmlns:rdf="http://www.w3.org/1999/02/22-rdf-syntax-ns#"
   xmlns:svg="http://www.w3.org/2000/svg"
   xmlns="http://www.w3.org/2000/svg"
   xmlns:sodipodi="http://sodipodi.sourceforge.net/DTD/sodipodi-0.dtd"
   xmlns:inkscape="http://www.inkscape.org/namespaces/inkscape"
   width="210mm"
   height="297mm"
   viewBox="0 0 210 297"
   version="1.1"
   id="svg8"
   inkscape:version="1.0.1 (3bc2e813f5, 2020-09-07)"
   sodipodi:docname="icon-js.svg">
  <defs
     id="defs2" />
  <sodipodi:namedview
     id="base"
     pagecolor="#ffffff"
     bordercolor="#666666"
     borderopacity="1.0"
     inkscape:pageopacity="0.0"
     inkscape:pageshadow="2"
     inkscape:zoom="0.49497475"
     inkscape:cx="291.69"
     inkscape:cy="507.54303"
     inkscape:document-units="mm"
     inkscape:current-layer="layer1"
     inkscape:document-rotation="0"
     showgrid="false"
     inkscape:window-width="958"
     inkscape:window-height="1008"
     inkscape:window-x="953"
     inkscape:window-y="0"
     inkscape:window-maximized="0" />
  <metadata
     id="metadata5">
    <rdf:RDF>
      <cc:Work
         rdf:about="">
        <dc:format>image/svg+xml</dc:format>
        <dc:type
           rdf:resource="http://purl.org/dc/dcmitype/StillImage" />
        <dc:title />
      </cc:Work>
    </rdf:RDF>
  </metadata>
  <g
     inkscape:label="Слой 1"
     inkscape:groupmode="layer"
     id="layer1">
    <g
       id="g909"
       transform="matrix(0.04927832,0,0,0.04907702,3.2023728,141.83996)">
      <path
         id="rect851"
         style="fill:#fdd83c;fill-opacity:1;stroke:none;stroke-width:1.03893;stroke-miterlimit:4;stroke-dasharray:none;stroke-opacity:1"
         d="M 61.632001,51.921743 136.20021,50.265267 122.23613,210.94351 62.190565,225.85179 Z"
         sodipodi:nodetypes="ccccc" />
      <path
         style="fill:#4d4d4d;fill-opacity:1;stroke:none;stroke-width:0.264583px;stroke-linecap:butt;stroke-linejoin:miter;stroke-opacity:1"
         d="m 67.195341,74.222646 h 57.997489 l -1.87089,22.183368 -33.141419,-0.26727 0.53454,22.450636 h 30.735999 l -6.1472,66.81738 -0.0405,0.57699 -48.191959,10.86681 0.37798,-23.43452 27.02529,-4.15774 3.02381,-29.10417 -30.0491,0.37798 z"
         id="path865" />
      <path
         style="fill:#000000;stroke:#000000;stroke-width:0.264583px;stroke-linecap:butt;stroke-linejoin:miter;stroke-opacity:1"
         d="M 6.1911015,73.519634 H 55.516991 L 55.705981,196.55088 0.71044148,185.40058 -2.3133685,150.81576 H 19.798241 l 1.70089,17.38691 11.90625,2.26785 0.37798,-74.650286 H 8.4589515 Z"
         id="path867" />
      <path
         style="fill:#d4b830;fill-opacity:1;fill-rule:nonzero;stroke:none;stroke-width:2.02031;stroke-miterlimit:4;stroke-dasharray:none;stroke-opacity:1"
         d="m 25.192701,227.08906 c -19.1097695,-5.29984 -34.7867495,-9.67015 -34.8377295,-9.7118 -0.051,-0.0417 -3.5954505,-39.28256 -7.8766105,-87.202 -4.28115,-47.919447 -7.91056,-88.028298 -8.06534,-89.130785 l -0.28143,-2.00452 h 87.42187 87.421859 l -0.30591,2.53906 c -0.16825,1.396482 -3.79109,41.613598 -8.05076,89.371365 -4.25966,47.75777 -7.79856,86.88133 -7.86422,86.94126 -0.47305,0.43173 -70.492519,18.91762 -71.514619,18.88063 -0.71614,-0.0259 -16.93734,-4.38337 -36.04711,-9.68321 z M 91.985331,213.312 c 15.274189,-3.85049 27.855159,-7.0848 27.957699,-7.18734 0.31432,-0.31431 0.98489,-7.82307 7.06874,-79.15304 3.23472,-37.925538 6.03417,-70.723367 6.22098,-72.884055 l 0.33967,-3.928525 -13.29762,0.34448 c -34.075749,0.882747 -53.608029,1.357394 -56.015419,1.361209 l -2.62738,0.0042 0.35478,71.227331 c 0.19512,39.17503 0.35514,77.19696 0.35558,84.49319 5.3e-4,12.38089 0.0632,13.24777 0.93625,12.99468 0.51449,-0.14916 13.43252,-3.42159 28.70672,-7.27209 z M 55.928701,134.98971 V 73.250452 H 30.830551 5.7324015 l 0.2869,2.539061 c 0.15779,1.396484 0.68768,6.508014 1.17752,11.358956 l 0.89063,8.819895 12.7633895,0.14347 12.76339,0.14347 -0.39274,36.739716 c -0.21602,20.20685 -0.43247,36.78522 -0.48101,36.84082 -0.11804,0.13524 -10.59983,-1.90032 -10.76431,-2.09042 -0.0708,-0.0819 -0.40732,-3.03534 -0.74777,-6.5633 -0.34045,-3.52795 -0.75765,-7.43677 -0.9271,-8.68626 l -0.3081,-2.27179 H 8.5715315 -2.8501485 l 0.27836,2.27179 c 0.1531,1.24949 0.86915,9.10624 1.59122998,17.45945 0.72208,8.35321 1.44718,15.32895 1.61132,15.50163 0.34258,0.36041 52.27182952,11.12501 54.09522952,11.21359 l 1.20271,0.0584 z"
         id="path895" />
    </g>
  </g>
</svg>
